<svg xmlns="http://www.w3.org/2000/svg" viewBox="-712 -5414 27 27"><defs><style>.a{fill:#ca6c2e;}.b{fill:#fff;}</style></defs><g transform="translate(-736 -5758)"><circle class="a" cx="13.5" cy="13.5" r="13.5" transform="translate(24 344)"/><g transform="translate(33 402.934)"><g transform="translate(-2.987 -55.834)"><path class="b" d="M38.3,29.663s-2.906,1.757-2.683,3.594-2.533-.239-1.341-1.917-1.341-1.962-2.161-2.633c-.758-.62-2.012-3.038,1.714-6.631,0,0-4.992,1.837-5.588,6.149s4.545,5.2,3.055,7.114A2.7,2.7,0,0,1,26.6,33.1c.521-2.955-.447-5.031-.969-5.271,0,0,1.117,2.236-.223,3.913s-3.638,9.586,4.023,10.3c8.793.822,9.463-4.872,8.2-7.986S38.3,29.663,38.3,29.663Z" transform="translate(-24.013 -22.076)"/><path class="b" d="M57.942,29.217c1.043,1.416,1.788,1.639,1.788,1.639a3.35,3.35,0,0,1-.447-4.173S56.9,27.8,57.942,29.217Z" transform="translate(-48.424 -24.397)"/></g></g></g></svg>