<svg xmlns="http://www.w3.org/2000/svg" viewBox="-699 -5772.8 21.501 21.51"><defs><style>.a{fill:#fff;}</style></defs><g transform="translate(-973 -5801.995)"><path class="a" d="M21.389,9.12a.921.921,0,0,0-.6-.736l-1.693-.6c-.1-.286-.215-.559-.34-.828l.774-1.622a.925.925,0,0,0-.088-.942,10.918,10.918,0,0,0-2.31-2.3A.916.916,0,0,0,16.188,2l-1.622.77a8.787,8.787,0,0,0-.828-.34l-.6-1.695a.921.921,0,0,0-.727-.6,9.679,9.679,0,0,0-3.265,0,.914.914,0,0,0-.727.6l-.6,1.693a8.54,8.54,0,0,0-.828.344L5.377,2a.916.916,0,0,0-.942.088A10.727,10.727,0,0,0,2.119,4.4a.916.916,0,0,0-.088.942L2.8,6.961a8.788,8.788,0,0,0-.34.828l-1.686.6a.921.921,0,0,0-.6.731A7.984,7.984,0,0,0,0,10.751a10.63,10.63,0,0,0,.136,1.63.921.921,0,0,0,.6.736l1.693.6c.1.286.215.559.34.828L2,16.169a.925.925,0,0,0,.088.942A10.727,10.727,0,0,0,4.4,19.417a.916.916,0,0,0,.942.088l1.622-.77a8.788,8.788,0,0,0,.828.34l.6,1.695a.921.921,0,0,0,.727.6,10.6,10.6,0,0,0,1.639.136,11.148,11.148,0,0,0,1.635-.136.914.914,0,0,0,.731-.6l.6-1.693a8.538,8.538,0,0,0,.828-.34l1.622.77a.916.916,0,0,0,.942-.088,10.821,10.821,0,0,0,2.3-2.31.916.916,0,0,0,.088-.942l-.774-1.622a8.788,8.788,0,0,0,.34-.828l1.695-.6a.921.921,0,0,0,.6-.731,10.633,10.633,0,0,0,.136-1.635A8.044,8.044,0,0,0,21.389,9.12ZM10.754,14.8a4.27,4.27,0,1,1,4.278-4.267A4.27,4.27,0,0,1,10.754,14.8Z" transform="translate(274 29.2)"/></g></svg>